<svg width="39" height="40" viewBox="0 0 39 40" fill="none" xmlns="http://www.w3.org/2000/svg">
<path d="M32.5539 1.99552H29.7802C28.5215 1.99701 27.5014 3.01704 27.4999 4.27578V6.70935L21.1405 0.662008C20.225 -0.220751 18.775 -0.220751 17.8595 0.662008L1.35099 16.3605C0.602544 17.0716 0.366267 18.1687 0.755608 19.1248C1.10596 20.0544 1.99716 20.6683 2.99055 20.6643H3.49725V37.6663C3.50975 38.9656 4.5716 40.0095 5.87089 39.9999H33.1274C34.4267 40.0095 35.4885 38.9656 35.501 37.6663V20.6643H36.0077C37.0011 20.6683 37.8923 20.0544 38.2427 19.1248C38.632 18.1686 38.3957 17.0716 37.6473 16.3605L34.8343 13.6849V4.27578C34.8327 3.01704 33.8126 1.99701 32.5539 1.99552ZM28.8335 4.27578C28.8342 3.75322 29.2576 3.32974 29.7802 3.32903H32.5539C33.0764 3.32974 33.4999 3.75322 33.5006 4.27578V12.4167L28.8335 7.97754V4.27578ZM37.0038 18.6308C36.8506 19.0494 36.4533 19.3285 36.0076 19.3309H34.8341C34.4659 19.3309 34.1674 19.6294 34.1674 19.9976V37.6663C34.1554 38.2292 33.6903 38.6765 33.1273 38.6664H5.87081C5.30777 38.6765 4.84272 38.2292 4.83069 37.6663V19.9976C4.83069 19.6294 4.53214 19.3309 4.16397 19.3309H2.99048C2.5448 19.3285 2.14757 19.0494 1.99434 18.6308C1.80581 18.1811 1.91543 17.6617 2.26969 17.3267L18.7803 1.62282C19.1791 1.22871 19.8209 1.22871 20.2197 1.62282L36.729 17.3246C37.0838 17.6603 37.1932 18.1807 37.0038 18.6308Z" fill="#025595"/>
<path fill-rule="evenodd" clip-rule="evenodd" d="M8.33203 24.7082C8.33203 30.6037 13.1292 35.4007 19.0247 35.4007C24.9202 35.4007 29.7171 30.6037 29.7171 24.7082C29.7171 24.3563 29.7006 24.0084 29.6677 23.6652C29.6287 23.2647 29.2739 22.973 28.8715 23.01C28.471 23.0488 28.1775 23.4046 28.2163 23.8062C28.2445 24.1025 28.2591 24.4038 28.2591 24.7082C28.2591 29.7997 24.1162 33.9426 19.0247 33.9426C13.933 33.9426 9.79011 29.7997 9.79011 24.7082C9.79011 19.6165 13.933 15.4736 19.0247 15.4736C20.7948 15.4736 22.5172 15.9781 24.0044 16.9337C24.3437 17.1514 24.7938 17.0533 25.0124 16.714C25.2302 16.3748 25.1311 15.9238 24.7927 15.7059C23.0693 14.5997 21.0747 14.0156 19.0247 14.0156C13.1292 14.0156 8.33203 18.8127 8.33203 24.7082ZM19.7245 26.9241C19.8664 27.0669 20.0531 27.1379 20.2396 27.1379C20.4263 27.1379 20.6129 27.0669 20.7558 26.925L31.4484 16.2324C31.7332 15.9476 31.7332 15.4859 31.4484 15.2011C31.1636 14.9163 30.7019 14.9163 30.417 15.2011L20.2407 25.3776L16.3815 21.5185C16.0968 21.2337 15.6351 21.2337 15.3503 21.5185C15.0655 21.8032 15.0655 22.2649 15.3503 22.5499L19.7245 26.9241Z" fill="#025595"/>
</svg>
