<svg width="40" height="40" viewBox="0 0 40 40" fill="none" xmlns="http://www.w3.org/2000/svg">
<g clip-path="url(#clip0_133_52)">
<path d="M33.0539 1.99552H30.2802C29.0215 1.99701 28.0014 3.01704 27.9999 4.27578V6.70935L21.6405 0.662008C20.725 -0.220751 19.275 -0.220751 18.3595 0.662008L1.85099 16.3605C1.10254 17.0716 0.866267 18.1687 1.25561 19.1248C1.60596 20.0544 2.49716 20.6683 3.49055 20.6643H3.99725V37.6663C4.00975 38.9656 5.0716 40.0095 6.37089 39.9999H33.6274C34.9267 40.0095 35.9885 38.9656 36.001 37.6663V20.6643H36.5077C37.5011 20.6683 38.3923 20.0544 38.7427 19.1248C39.132 18.1686 38.8957 17.0716 38.1473 16.3605L35.3343 13.6849V4.27578C35.3327 3.01704 34.3126 1.99701 33.0539 1.99552ZM29.3335 4.27578C29.3342 3.75322 29.7576 3.32974 30.2802 3.32903H33.0539C33.5764 3.32974 33.9999 3.75322 34.0006 4.27578V12.4167L29.3335 7.97754V4.27578ZM37.5038 18.6308C37.3506 19.0494 36.9533 19.3285 36.5076 19.3309H35.3341C34.9659 19.3309 34.6674 19.6294 34.6674 19.9976V37.6663C34.6554 38.2292 34.1903 38.6765 33.6273 38.6664H6.37081C5.80777 38.6765 5.34272 38.2292 5.33069 37.6663V19.9976C5.33069 19.6294 5.03214 19.3309 4.66397 19.3309H3.49048C3.0448 19.3285 2.64757 19.0494 2.49434 18.6308C2.30581 18.1811 2.41543 17.6617 2.76969 17.3267L19.2803 1.62282C19.6791 1.22871 20.3209 1.22871 20.7197 1.62282L37.229 17.3246C37.5838 17.6603 37.6932 18.1807 37.5038 18.6308Z" fill="white"/>
<path d="M18.0888 34.3673L18.0889 34.3673C19.3066 35.5869 20.9259 36.2578 22.6501 36.2578C25.5432 36.2578 27.8975 33.9045 27.8975 31.0114V22.7487C27.8975 22.2683 27.5067 21.8766 27.0254 21.8766C26.5441 21.8766 26.1534 22.2682 26.1534 22.7487V25.1789C26.1534 25.5025 25.8908 25.765 25.5673 25.765C25.2438 25.765 24.9812 25.5025 24.9812 25.1789V21.7766C24.9812 21.2962 24.5905 20.9046 24.1092 20.9046C23.6279 20.9046 23.2371 21.2962 23.2371 21.7766V25.1789C23.2371 25.5025 22.9746 25.765 22.6511 25.765C22.3275 25.765 22.065 25.5025 22.065 25.1789V20.8046C22.065 20.3241 21.6742 19.9325 21.1929 19.9325C20.7116 19.9325 20.3209 20.3241 20.3209 20.8046V25.1789C20.3209 25.5025 20.0583 25.765 19.7348 25.765C19.4113 25.765 19.1487 25.5025 19.1487 25.1789V15.9441C19.1487 15.4637 18.758 15.0721 18.2767 15.0721C17.7954 15.0721 17.4046 15.4637 17.4046 15.9441V28.0952C17.4046 28.2981 17.2991 28.4867 17.1269 28.5934C16.9551 28.7003 16.7385 28.7093 16.5573 28.6193L16.5571 28.6191L13.1811 26.9317L18.0888 34.3673ZM18.0888 34.3673L11.8024 28.0818L11.8022 28.0816M18.0888 34.3673L11.8022 28.0816M11.8022 28.0816C11.6542 27.9344 11.5721 27.7375 11.5721 27.5216M11.8022 28.0816L11.5721 27.5216M11.5721 27.5216C11.5721 27.0889 11.924 26.7371 12.3567 26.7371M11.5721 27.5216L12.3567 26.7371M12.3567 26.7371C12.6414 26.7371 12.9255 26.8043 13.181 26.9316L12.3567 26.7371ZM13.705 25.8827L13.6603 25.9721L13.705 25.8827C13.2886 25.6745 12.8222 25.5649 12.3567 25.5649C11.2767 25.5649 10.4 26.443 10.4 27.5275C10.4 28.0508 10.604 28.5418 10.9737 28.9115L17.2591 35.1969C17.2591 35.1969 17.2591 35.1969 17.2591 35.1969C18.6981 36.6369 20.6143 37.4299 22.6511 37.4299C26.1902 37.4299 29.0696 34.5506 29.0696 31.0114V22.7487C29.0696 21.6212 28.1529 20.7045 27.0254 20.7045C26.6497 20.7045 26.2968 20.8068 25.994 20.9841C25.6837 20.25 24.9559 19.7324 24.1092 19.7324C23.7335 19.7324 23.3806 19.8347 23.0777 20.012C22.7675 19.2779 22.0396 18.7604 21.1929 18.7604C20.8814 18.7604 20.5854 18.8307 20.3209 18.9562V15.9441C20.3209 14.8167 19.4041 13.8999 18.2767 13.8999C17.1492 13.8999 16.2325 14.8167 16.2325 15.9441V27.1469L13.705 25.8827Z" fill="white" stroke="white" stroke-width="0.2"/>
</g>
<defs>
<clipPath id="clip0_133_52">
<rect width="40" height="40" fill="white"/>
</clipPath>
</defs>
</svg>
