<svg width="20" height="20" viewBox="0 0 20 20" fill="none" xmlns="http://www.w3.org/2000/svg">
<path fill-rule="evenodd" clip-rule="evenodd" d="M6.29935 3.20801C4.08911 3.20801 2.29102 5.00859 2.29102 7.24134C2.29102 9.9501 3.54158 12.1204 5.11538 13.7329C6.6967 15.3531 8.56597 16.368 9.6846 16.7499L9.69071 16.7519L9.69069 16.752C9.74466 16.771 9.85653 16.7913 9.99935 16.7913C10.1422 16.7913 10.254 16.771 10.308 16.752L10.3141 16.7498L10.3141 16.7499C11.4327 16.368 13.302 15.3531 14.8833 13.7329C16.4571 12.1204 17.7077 9.9501 17.7077 7.24134C17.7077 5.00859 15.9096 3.20801 13.6993 3.20801C12.3975 3.20801 11.2302 3.8406 10.5011 4.82231C10.3832 4.98108 10.1971 5.07467 9.99935 5.07467C9.80159 5.07467 9.61549 4.98108 9.49758 4.82231C8.76814 3.84009 7.60891 3.20801 6.29935 3.20801ZM1.04102 7.24134C1.04102 4.32409 3.39292 1.95801 6.29935 1.95801C7.74663 1.95801 9.05315 2.54633 9.99962 3.49527C10.9481 2.54604 12.2595 1.95801 13.6993 1.95801C16.6058 1.95801 18.9577 4.32409 18.9577 7.24134C18.9577 10.3659 17.5082 12.8331 15.7779 14.606C14.0563 16.3699 12.0189 17.4881 10.7207 17.9319C10.4921 18.0119 10.2304 18.0413 9.99935 18.0413C9.76828 18.0413 9.50655 18.0119 9.27797 17.9319C7.9798 17.4881 5.94242 16.3699 4.22082 14.606C2.49045 12.8331 1.04102 10.3659 1.04102 7.24134Z" fill="#025595"/>
</svg>
