<svg width="40" height="40" viewBox="0 0 40 40" fill="none" xmlns="http://www.w3.org/2000/svg">
<g clip-path="url(#clip0_133_37)">
<path d="M33.0539 1.99552H30.2802C29.0215 1.99701 28.0014 3.01704 27.9999 4.27578V6.70935L21.6405 0.662008C20.725 -0.220751 19.275 -0.220751 18.3595 0.662008L1.85099 16.3605C1.10254 17.0716 0.866267 18.1687 1.25561 19.1248C1.60596 20.0544 2.49716 20.6683 3.49055 20.6643H3.99725V37.6663C4.00975 38.9656 5.0716 40.0095 6.37089 39.9999H33.6274C34.9267 40.0095 35.9885 38.9656 36.001 37.6663V20.6643H36.5077C37.5011 20.6683 38.3923 20.0544 38.7427 19.1248C39.132 18.1686 38.8957 17.0716 38.1473 16.3605L35.3343 13.6849V4.27578C35.3327 3.01704 34.3126 1.99701 33.0539 1.99552ZM29.3335 4.27578C29.3342 3.75322 29.7576 3.32974 30.2802 3.32903H33.0539C33.5764 3.32974 33.9999 3.75322 34.0006 4.27578V12.4167L29.3335 7.97754V4.27578ZM37.5038 18.6308C37.3506 19.0494 36.9533 19.3285 36.5076 19.3309H35.3341C34.9659 19.3309 34.6674 19.6294 34.6674 19.9976V37.6663C34.6554 38.2292 34.1903 38.6765 33.6273 38.6664H6.37081C5.80777 38.6765 5.34272 38.2292 5.33069 37.6663V19.9976C5.33069 19.6294 5.03214 19.3309 4.66397 19.3309H3.49048C3.0448 19.3285 2.64757 19.0494 2.49434 18.6308C2.30581 18.1811 2.41543 17.6617 2.76969 17.3267L19.2803 1.62282C19.6791 1.22871 20.3209 1.22871 20.7197 1.62282L37.229 17.3246C37.5838 17.6603 37.6932 18.1807 37.5038 18.6308Z" fill="#025595"/>
<path d="M9.99806 23.998C9.99532 27.68 12.0178 31.0652 15.2614 32.8076C18.505 34.5501 22.444 34.3674 25.5125 32.3324L29.9223 36.7429C30.4267 37.2471 31.1618 37.444 31.8507 37.2593C32.5396 37.0746 33.0777 36.5364 33.2622 35.8475C33.4468 35.1585 33.2497 34.4235 32.7453 33.9193L28.3335 29.5114C30.7006 25.9429 30.5331 21.2632 27.9168 17.873C25.3006 14.4829 20.8163 13.1344 16.7642 14.5195C12.7121 15.9046 9.99165 19.7157 9.99806 23.998ZM31.806 34.8659C31.9321 34.9884 32.0033 35.1568 32.0033 35.3326C32.0033 35.5084 31.9321 35.6768 31.806 35.7993C31.5462 36.0565 31.1277 36.0565 30.8679 35.7993L26.5794 31.5109C26.9122 31.2194 27.2254 30.9063 27.5169 30.5734L31.806 34.8659ZM28.6669 23.998C28.6669 28.7851 24.7862 32.6657 19.9993 32.6657C15.2123 32.6657 11.3316 28.7851 11.3316 23.998C11.3316 19.211 15.2123 15.3304 19.9992 15.3304C24.784 15.3359 28.6614 19.2133 28.6669 23.998Z" fill="#025595"/>
<path fill-rule="evenodd" clip-rule="evenodd" d="M17.0185 17.2966C14.373 18.4768 12.6677 21.1012 12.6641 23.9981C12.6641 24.3663 12.9626 24.6648 13.3308 24.6648C13.699 24.6648 13.9975 24.3662 13.9975 23.9981C14.001 21.6273 15.3969 19.4799 17.5619 18.5141C17.7841 18.42 17.9381 18.2133 17.9647 17.9735C17.9912 17.7337 17.8861 17.4982 17.6899 17.3579C17.4937 17.2174 17.2369 17.194 17.0185 17.2966Z" fill="#025595"/>
<path d="M19.9987 17.9974C20.367 17.9974 20.6655 17.6989 20.6655 17.3307C20.6655 16.9624 20.367 16.6639 19.9987 16.6639C19.6305 16.6639 19.332 16.9624 19.332 17.3307C19.332 17.6989 19.6305 17.9974 19.9987 17.9974Z" fill="#025595"/>
</g>
<defs>
<clipPath id="clip0_133_37">
<rect width="40" height="40" fill="white"/>
</clipPath>
</defs>
</svg>
