<svg width="89" height="61" viewBox="0 0 89 61" fill="none" xmlns="http://www.w3.org/2000/svg">
<g clip-path="url(#clip0_133_17)">
<path d="M67.0342 3.35025C65.0874 1.39114 62.4962 0.215795 59.7484 0.0454292C57.0008 -0.124937 54.2859 0.721417 52.1148 2.42521C50.1324 0.874883 47.6934 0.0330728 45.1828 0.0325831C42.6723 0.0320935 40.2331 0.872954 38.25 2.42251C35.9883 0.636192 33.1345 -0.213867 30.2712 0.0458754C27.408 0.305617 24.7512 1.65557 22.8433 3.82014C20.9353 5.98472 19.9201 8.80065 20.0049 11.6931C20.0897 14.5855 21.2681 17.3364 23.2995 19.3839L30.2371 26.3679C30.2424 26.3731 30.2478 26.3782 30.2539 26.3836C30.2599 26.389 30.2616 26.3916 30.2655 26.3955C30.2727 26.4027 30.2804 26.4093 30.2876 26.4166C30.3979 26.5264 30.5098 26.6334 30.6235 26.7377C30.6819 26.7916 30.741 26.8439 30.8004 26.8964C30.8487 26.9387 30.8972 26.9806 30.9459 27.022C32.9235 28.7086 35.4175 29.659 38.009 29.7131C40.6007 29.7674 43.1317 28.9223 45.1773 27.3197C47.3483 29.0234 50.0632 29.8698 52.8109 29.6994C55.5587 29.5291 58.1498 28.3537 60.0967 26.3946L67.0344 19.4116C69.1473 17.2801 70.3338 14.3919 70.3338 11.3809C70.3338 8.36984 69.1472 5.48177 67.0342 3.35025ZM45.1807 2.99058C46.8301 2.98952 48.4428 3.48104 49.8145 4.40292C51.1864 5.3248 52.2556 6.63559 52.8869 8.1694C53.5183 9.70321 53.6834 11.3911 53.3613 13.0194C53.0392 14.6477 52.2445 16.1432 51.0776 17.3166L45.1807 23.252L39.2835 17.3166C38.1167 16.1432 37.3219 14.6476 36.9998 13.0193C36.6777 11.391 36.8428 9.70315 37.4742 8.16933C38.1056 6.63551 39.1749 5.32471 40.5466 4.40285C41.9185 3.48099 43.5312 2.98948 45.1807 2.99058ZM29.9031 18.3642C29.9001 17.2613 30.1144 16.1689 30.5337 15.1501C30.953 14.1313 31.5689 13.2062 32.3458 12.4286L33.9153 10.8488C33.8393 12.4279 34.0925 14.0055 34.6586 15.4803C35.2247 16.9549 36.0911 18.294 37.2022 19.4116L42.9786 25.2258C41.7326 26.1042 40.271 26.6216 38.7531 26.7213C37.2352 26.821 35.7192 26.4996 34.3703 25.7917C33.0215 25.0837 31.8916 24.0169 31.1038 22.707C30.316 21.3972 29.9006 19.8948 29.9027 18.3637L29.9031 18.3642ZM25.3805 17.2887C23.9044 15.8033 23.0355 13.8147 22.9453 11.7158C22.8551 9.61679 23.5502 7.56009 24.8934 5.95196C26.2365 4.34381 28.13 3.30117 30.1998 3.02998C32.2696 2.75879 34.3652 3.27879 36.0726 4.48724L30.2644 10.3334C29.2134 11.3856 28.3802 12.6371 27.8129 14.0156C27.2457 15.3941 26.9557 16.8721 26.9598 18.3642C26.9598 18.5403 26.9639 18.7157 26.9721 18.8907L25.3805 17.2887ZM52.1187 26.7582C50.4148 26.7622 48.7513 26.2369 47.355 25.2539L53.1598 19.4116C54.2709 18.294 55.1372 16.9549 55.7033 15.4802C56.2693 14.0055 56.5225 12.4279 56.4466 10.8488L58.0162 12.4286C59.1825 13.6026 59.9766 15.0983 60.2984 16.7266C60.6203 18.3549 60.455 20.0427 59.8237 21.5766C59.1924 23.1104 58.1235 24.4213 56.7521 25.3437C55.3805 26.266 53.7682 26.7582 52.1187 26.7582ZM64.9532 17.3166L63.3894 18.8907C63.3973 18.7159 63.4013 18.5405 63.4017 18.3642C63.4057 16.8721 63.1157 15.3941 62.5485 14.0156C61.9812 12.6371 61.1479 11.3856 60.0969 10.3334L54.2928 4.49113C56.0032 3.29309 58.0973 2.78303 60.1627 3.06135C62.2281 3.33966 64.1151 4.3862 65.4523 5.99491C66.7894 7.60361 67.4797 9.6579 67.3874 11.7533C67.295 13.8487 66.4267 15.8334 64.9532 17.3166Z" fill="#025595"/>
<path d="M2.08 54V37.1H9.542C10.7207 37.1 11.726 37.282 12.558 37.646C13.39 37.9927 14.0227 38.5213 14.456 39.232C14.9067 39.9427 15.132 40.8353 15.132 41.91C15.132 42.638 15.0107 43.262 14.768 43.782C14.5427 44.302 14.222 44.744 13.806 45.108C13.39 45.4547 12.896 45.7233 12.324 45.914C11.7693 46.1047 11.1627 46.226 10.504 46.278L10.426 46.148C11.3447 46.1827 12.1333 46.2953 12.792 46.486C13.4507 46.6767 13.962 47.0233 14.326 47.526C14.69 48.0287 14.872 48.7827 14.872 49.788V54H12.792V49.788C12.792 49.0947 12.6707 48.5573 12.428 48.176C12.2027 47.7773 11.8127 47.5 11.258 47.344C10.7207 47.1707 9.97533 47.084 9.022 47.084H4.16V54H2.08ZM4.16 45.134H9.542C10.7207 45.134 11.596 44.8393 12.168 44.25C12.7573 43.6433 13.052 42.8633 13.052 41.91C13.052 40.9913 12.7573 40.2893 12.168 39.804C11.596 39.3013 10.7207 39.05 9.542 39.05H4.16V45.134ZM27.5756 49.814H29.5256C29.387 50.6633 29.075 51.426 28.5896 52.102C28.1216 52.7607 27.4976 53.2893 26.7176 53.688C25.955 54.0693 25.071 54.26 24.0656 54.26C22.8523 54.26 21.7603 53.974 20.7896 53.402C19.819 52.8127 19.0476 52.0153 18.4756 51.01C17.921 49.9873 17.6436 48.826 17.6436 47.526C17.6436 46.226 17.9123 45.0647 18.4496 44.042C19.0043 43.0193 19.7583 42.2133 20.7116 41.624C21.665 41.0347 22.7396 40.74 23.9356 40.74C25.201 40.74 26.267 41.026 27.1336 41.598C28.0176 42.1527 28.6676 42.976 29.0836 44.068C29.517 45.1427 29.6903 46.4687 29.6036 48.046H19.7236C19.8103 48.8953 20.0443 49.6407 20.4256 50.282C20.807 50.9233 21.3096 51.426 21.9336 51.79C22.5576 52.1367 23.2683 52.31 24.0656 52.31C24.9496 52.31 25.695 52.0847 26.3016 51.634C26.9256 51.166 27.3503 50.5593 27.5756 49.814ZM24.0136 42.69C22.939 42.69 22.0376 43.002 21.3096 43.626C20.5816 44.25 20.0963 45.0993 19.8536 46.174H27.4716C27.4023 45.03 27.0296 44.1633 26.3536 43.574C25.695 42.9847 24.915 42.69 24.0136 42.69ZM31.6617 49.814H33.5857C33.6377 50.5593 33.915 51.166 34.4177 51.634C34.9377 52.102 35.683 52.336 36.6537 52.336C37.243 52.336 37.7024 52.258 38.0317 52.102C38.3784 51.946 38.6297 51.738 38.7857 51.478C38.9417 51.2007 39.0197 50.8973 39.0197 50.568C39.0197 50.1693 38.9157 49.8573 38.7077 49.632C38.517 49.3893 38.2484 49.19 37.9017 49.034C37.5724 48.878 37.191 48.7307 36.7577 48.592C36.255 48.4013 35.735 48.202 35.1977 47.994C34.6777 47.7687 34.1837 47.5087 33.7157 47.214C33.265 46.902 32.901 46.5293 32.6237 46.096C32.3464 45.6453 32.2077 45.108 32.2077 44.484C32.2077 43.964 32.3117 43.4787 32.5197 43.028C32.7277 42.56 33.0224 42.1613 33.4037 41.832C33.8024 41.4853 34.2617 41.2167 34.7817 41.026C35.319 40.8353 35.9084 40.74 36.5497 40.74C37.4164 40.74 38.1444 40.9133 38.7337 41.26C39.3404 41.6067 39.7997 42.1007 40.1117 42.742C40.441 43.366 40.6144 44.094 40.6317 44.926H38.8377C38.7164 44.146 38.465 43.5827 38.0837 43.236C37.7197 42.872 37.191 42.69 36.4977 42.69C35.787 42.69 35.241 42.846 34.8597 43.158C34.4784 43.47 34.2877 43.886 34.2877 44.406C34.2877 44.7873 34.4264 45.108 34.7037 45.368C34.981 45.6107 35.3364 45.836 35.7697 46.044C36.2204 46.2347 36.697 46.434 37.1997 46.642C37.7024 46.85 38.1877 47.058 38.6557 47.266C39.1237 47.474 39.5397 47.7167 39.9037 47.994C40.2677 48.2713 40.5537 48.618 40.7617 49.034C40.987 49.4327 41.0997 49.9353 41.0997 50.542C41.0997 51.27 40.9264 51.92 40.5797 52.492C40.2504 53.0467 39.7564 53.48 39.0977 53.792C38.4564 54.104 37.6677 54.26 36.7317 54.26C35.8824 54.26 35.1544 54.156 34.5477 53.948C33.9584 53.7227 33.4644 53.4367 33.0657 53.09C32.667 52.726 32.355 52.3447 32.1297 51.946C31.9217 51.5473 31.783 51.1573 31.7137 50.776C31.6444 50.3947 31.627 50.074 31.6617 49.814ZM42.8523 41H50.4963V42.95H42.8523V41ZM45.6343 37.62H47.7143V54H45.6343V37.62ZM57.6138 54.26C56.5911 54.26 55.6464 53.974 54.7798 53.402C53.9304 52.8127 53.2458 52.0153 52.7258 51.01C52.2231 49.9873 51.9718 48.826 51.9718 47.526C51.9718 46.226 52.2318 45.0647 52.7518 44.042C53.2718 43.0193 53.9738 42.2133 54.8578 41.624C55.7591 41.0347 56.7644 40.74 57.8738 40.74C59.0871 40.74 60.0058 41.052 60.6298 41.676C61.2711 42.2827 61.7044 43.0973 61.9298 44.12C62.1724 45.1427 62.2938 46.278 62.2938 47.526C62.2938 48.1847 62.2244 48.904 62.0858 49.684C61.9471 50.4467 61.7044 51.1833 61.3578 51.894C61.0284 52.5873 60.5604 53.1593 59.9538 53.61C59.3471 54.0433 58.5671 54.26 57.6138 54.26ZM58.1338 52.284C59.0178 52.284 59.7458 52.0673 60.3178 51.634C60.9071 51.2007 61.3404 50.6287 61.6178 49.918C61.8951 49.19 62.0338 48.3927 62.0338 47.526C62.0338 46.5727 61.8864 45.7407 61.5918 45.03C61.3144 44.302 60.8811 43.7387 60.2918 43.34C59.7198 42.924 59.0004 42.716 58.1338 42.716C56.8338 42.716 55.8284 43.1753 55.1178 44.094C54.4071 44.9953 54.0518 46.1393 54.0518 47.526C54.0518 48.4447 54.2251 49.268 54.5718 49.996C54.9358 50.7067 55.4211 51.27 56.0278 51.686C56.6518 52.0847 57.3538 52.284 58.1338 52.284ZM62.0338 41H64.1138V54H62.2158C62.2158 54 62.1984 53.844 62.1638 53.532C62.1464 53.22 62.1204 52.856 62.0858 52.44C62.0511 52.024 62.0338 51.6773 62.0338 51.4V41ZM66.5925 41H74.2365V42.95H66.5925V41ZM69.3745 37.62H71.4545V54H69.3745V37.62ZM85.644 49.814H87.594C87.4553 50.6633 87.1433 51.426 86.658 52.102C86.19 52.7607 85.566 53.2893 84.786 53.688C84.0233 54.0693 83.1393 54.26 82.134 54.26C80.9207 54.26 79.8287 53.974 78.858 53.402C77.8873 52.8127 77.116 52.0153 76.544 51.01C75.9893 49.9873 75.712 48.826 75.712 47.526C75.712 46.226 75.9807 45.0647 76.518 44.042C77.0727 43.0193 77.8267 42.2133 78.78 41.624C79.7333 41.0347 80.808 40.74 82.004 40.74C83.2693 40.74 84.3353 41.026 85.202 41.598C86.086 42.1527 86.736 42.976 87.152 44.068C87.5853 45.1427 87.7587 46.4687 87.672 48.046H77.792C77.8787 48.8953 78.1127 49.6407 78.494 50.282C78.8753 50.9233 79.378 51.426 80.002 51.79C80.626 52.1367 81.3367 52.31 82.134 52.31C83.018 52.31 83.7633 52.0847 84.37 51.634C84.994 51.166 85.4187 50.5593 85.644 49.814ZM82.082 42.69C81.0073 42.69 80.106 43.002 79.378 43.626C78.65 44.25 78.1647 45.0993 77.922 46.174H85.54C85.4707 45.03 85.098 44.1633 84.422 43.574C83.7633 42.9847 82.9833 42.69 82.082 42.69Z" fill="#12181D"/>
</g>
<defs>
<clipPath id="clip0_133_17">
<rect width="89" height="61" fill="white"/>
</clipPath>
</defs>
</svg>
