<svg width="12" height="13" viewBox="0 0 12 13" fill="none" xmlns="http://www.w3.org/2000/svg">
<path d="M6.15078 0.399937C5.38433 0.397306 4.62489 0.545832 3.9159 0.837013C3.20692 1.12819 2.56231 1.55632 2.01895 2.09689C1.4756 2.63745 1.04417 3.27986 0.749342 3.98734C0.454519 4.69482 0.302091 5.45349 0.300781 6.21994V12.0999C0.300781 12.3386 0.395603 12.5676 0.564385 12.7363C0.733168 12.9051 0.962086 12.9999 1.20078 12.9999H3.30078C3.53948 12.9999 3.76839 12.9051 3.93718 12.7363C4.10596 12.5676 4.20078 12.3386 4.20078 12.0999V6.21994C4.20058 5.94734 4.25784 5.67776 4.36881 5.42877C4.47979 5.17978 4.64199 4.95698 4.84484 4.77488C5.0477 4.59278 5.28666 4.45548 5.54613 4.37192C5.80561 4.28836 6.07978 4.26043 6.35078 4.28994C6.83679 4.35115 7.28343 4.5886 7.606 4.95725C7.92856 5.3259 8.10462 5.80011 8.10078 6.28994V12.0999C8.10078 12.3386 8.1956 12.5676 8.36438 12.7363C8.53317 12.9051 8.76209 12.9999 9.00078 12.9999H11.1008C11.3395 12.9999 11.5684 12.9051 11.7372 12.7363C11.906 12.5676 12.0008 12.3386 12.0008 12.0999V6.21994C11.9995 5.45349 11.847 4.69482 11.5522 3.98734C11.2574 3.27986 10.826 2.63745 10.2826 2.09689C9.73926 1.55632 9.09464 1.12819 8.38566 0.837013C7.67667 0.545832 6.91723 0.397306 6.15078 0.399937Z" fill="white"/>
</svg>
